# xmcd
#
# Track frame offsets:
#	183
#	1970
#	20713
#	43668
#	58708
#	83063
#	109725
#	146608
#
# Disc length: 2502 seconds
#
# Revision: 2
# Processed by: cddbd v1.5.2PL0 Copyright (c) Steve Scherf et al.
# Submitted via: SynApp - FreeCDDB Version: 2.5
#
DISCID=6309c408
DTITLE=Hooker, John Lee - You're So Fine
DYEAR=1989
DGENRE=Blues
TTITLE0=Introduction
TTITLE1=Goin' To California
TTITLE2=Crawlin' Kingsnake
TTITLE3=You're So Fine
TTITLE4=It Serve You Right To Suffer
TTITLE5=As The Years Go Passing By
TTITLE6=Black Night Is Falling
TTITLE7=Can't Stop Groovin'
EXTD=
EXTT0=
EXTT1=
EXTT2=
EXTT3=
EXTT4=
EXTT5=
EXTT6=
EXTT7=
PLAYORDER=
